<svg width="20" height="18" viewBox="0 0 20 18" fill="none" xmlns="http://www.w3.org/2000/svg">
<path d="M9.962 17.73C9.14867 17.174 8.282 16.7467 7.362 16.448C6.442 16.1493 5.488 16 4.5 16C3.98 16 3.46867 16.0433 2.966 16.13C2.464 16.218 1.97533 16.358 1.5 16.55C1.13733 16.6947 0.796667 16.6543 0.478 16.429C0.159333 16.2037 0 15.8927 0 15.496V5.87C0 5.62267 0.0683333 5.39967 0.205 5.201C0.341667 5.00233 0.520667 4.86133 0.742 4.778C1.32933 4.51933 1.94033 4.325 2.575 4.195C3.20967 4.065 3.85133 4 4.5 4C5.48 4 6.429 4.15067 7.347 4.452C8.265 4.75333 9.14933 5.154 10 5.654V16.523C10.8373 15.9897 11.726 15.6027 12.666 15.362C13.6053 15.1207 14.55 15 15.5 15C16.0487 15 16.5463 15.0307 16.993 15.092C17.4397 15.1533 17.9163 15.2587 18.423 15.408C18.5643 15.446 18.6957 15.4493 18.817 15.418C18.939 15.3853 19 15.2793 19 15.1V4.639C19.096 4.65767 19.188 4.68433 19.276 4.719C19.364 4.75367 19.4477 4.79867 19.527 4.854C19.685 4.93733 19.8033 5.056 19.882 5.21C19.9607 5.364 20 5.53267 20 5.716V15.458C20 15.854 19.831 16.1617 19.493 16.381C19.1557 16.6003 18.7863 16.6437 18.385 16.511C17.9217 16.3317 17.4487 16.2017 16.966 16.121C16.4833 16.0403 15.9947 16 15.5 16C14.5 16 13.5267 16.14 12.58 16.42C11.6333 16.7 10.7607 17.1367 9.962 17.73ZM12 14V5.5L17 0.5V9.5L12 14ZM9 16.048V6.244C8.296 5.85733 7.568 5.55333 6.816 5.332C6.06533 5.11067 5.29333 5 4.5 5C3.88333 5 3.312 5.05533 2.786 5.166C2.26067 5.276 1.78733 5.41533 1.366 5.584C1.26267 5.62267 1.176 5.67733 1.106 5.748C1.036 5.81867 1.00067 5.90533 1 6.008V15.144C1 15.324 1.061 15.43 1.183 15.462C1.305 15.494 1.43633 15.484 1.577 15.432C1.981 15.2927 2.419 15.186 2.891 15.112C3.363 15.038 3.89933 15.0007 4.5 15C5.39467 15 6.23533 15.1047 7.022 15.314C7.80867 15.5227 8.468 15.7673 9 16.048Z" fill="white"/>
</svg>
