<svg width="15" height="16" viewBox="0 0 15 16" fill="none" xmlns="http://www.w3.org/2000/svg">
<path d="M1 15.288V11.288H0V10.288H1V7.288H0V6.288H1V3L3.5 0.5L5.5 2.5L7.525 0.5L9.525 2.5L11.525 0.5L14.025 3V6.288H15V7.288H14.025V10.288H15V11.288H14.025V15.288H1ZM2 6.288H5V3.402L3.5 1.902L2 3.402V6.288ZM6 6.288H9V3.402L7.5 1.902L6 3.402V6.288ZM10.025 6.288H13V3.402L11.5 1.902L10.025 3.396V6.288ZM2 10.288H5V7.288H2V10.288ZM6 10.288H9V7.288H6V10.288ZM10.025 10.288H13V7.288H10.025V10.288ZM2 14.288H5V11.288H2V14.288ZM6 14.288H9V11.288H6V14.288ZM10.025 14.288H13V11.288H10.025V14.288Z" fill="white"/>
</svg>
