<svg width="18" height="9" viewBox="0 0 18 9" fill="none" xmlns="http://www.w3.org/2000/svg">
<path d="M1.573 5.101L4.333 7.86C4.42633 7.95733 4.47067 8.073 4.466 8.207C4.46133 8.341 4.41033 8.45667 4.313 8.554C4.21567 8.65133 4.10433 8.7 3.979 8.7C3.85367 8.7 3.742 8.65133 3.644 8.554L0.237 5.165C0.149667 5.07833 0.0883333 4.98933 0.053 4.898C0.0176666 4.80733 0 4.708 0 4.6C0 4.492 0.0176666 4.39267 0.053 4.302C0.0883333 4.21067 0.149667 4.12167 0.237 4.035L3.625 0.645999C3.72233 0.548666 3.837 0.5 3.969 0.5C4.101 0.5 4.21567 0.548666 4.313 0.645999C4.42367 0.743333 4.47567 0.862333 4.469 1.003C4.46233 1.143 4.41033 1.262 4.313 1.36L1.593 4.081H15.75L13.029 1.36C12.9357 1.26267 12.8847 1.14367 12.876 1.003C12.8673 0.863 12.9183 0.743999 13.029 0.645999C13.1263 0.548666 13.244 0.503333 13.382 0.51C13.5207 0.516666 13.639 0.568333 13.737 0.664999L17.106 4.035C17.1927 4.12167 17.2537 4.21067 17.289 4.302C17.3243 4.39333 17.342 4.49267 17.342 4.6C17.342 4.70733 17.3243 4.80667 17.289 4.898C17.2537 4.98933 17.1927 5.07867 17.106 5.166L13.717 8.554C13.6197 8.65133 13.5083 8.7 13.383 8.7C13.2577 8.7 13.1397 8.65133 13.029 8.554C12.9183 8.45667 12.863 8.33767 12.863 8.197C12.863 8.05633 12.9183 7.931 13.029 7.821L15.749 5.101H1.573Z" fill="white"/>
</svg>
