<svg width="16" height="19" viewBox="0 0 16 19" fill="none" xmlns="http://www.w3.org/2000/svg">
<path d="M1.616 18.73C1.15533 18.73 0.771 18.576 0.463 18.268C0.155 17.96 0.000666667 17.5757 0 17.115V4.345C0 3.885 0.154333 3.501 0.463 3.193C0.771667 2.885 1.156 2.73067 1.616 2.73H3.385V0.5H4.462V2.73H11.616V0.5H12.616V2.73H14.385C14.845 2.73 15.2293 2.88433 15.538 3.193C15.8467 3.50167 16.0007 3.886 16 4.346V17.115C16 17.575 15.846 17.9593 15.538 18.268C15.23 18.5767 14.8453 18.7307 14.384 18.73H1.616ZM1.616 17.73H14.385C14.5383 17.73 14.6793 17.666 14.808 17.538C14.9367 17.41 15.0007 17.2687 15 17.114V8.346H1V17.115C1 17.2683 1.064 17.4093 1.192 17.538C1.32 17.6667 1.461 17.7307 1.615 17.73M1 7.345H15V4.345C15 4.19167 14.936 4.05067 14.808 3.922C14.68 3.79333 14.5387 3.72933 14.384 3.73H1.616C1.462 3.73 1.32067 3.794 1.192 3.922C1.06333 4.05 0.999333 4.19133 1 4.346V7.345ZM8 11.884C7.79333 11.884 7.61333 11.8073 7.46 11.654C7.30667 11.5007 7.23 11.3207 7.23 11.114C7.23 10.9073 7.30667 10.7277 7.46 10.575C7.61333 10.4223 7.79333 10.3457 8 10.345C8.20667 10.3443 8.38667 10.421 8.54 10.575C8.69333 10.729 8.77 10.909 8.77 11.115C8.77 11.321 8.69333 11.5007 8.54 11.654C8.38667 11.8073 8.20667 11.884 8 11.884ZM4 11.884C3.79333 11.884 3.61333 11.8073 3.46 11.654C3.30667 11.5007 3.23 11.3207 3.23 11.114C3.23 10.9073 3.30667 10.7277 3.46 10.575C3.61333 10.4223 3.79333 10.3457 4 10.345C4.20667 10.3443 4.38667 10.421 4.54 10.575C4.69333 10.729 4.77 10.909 4.77 11.115C4.77 11.321 4.69333 11.5007 4.54 11.654C4.38667 11.8073 4.20667 11.884 4 11.884ZM12 11.884C11.7933 11.884 11.6133 11.8073 11.46 11.654C11.3067 11.5007 11.23 11.3207 11.23 11.114C11.23 10.9073 11.3067 10.7277 11.46 10.575C11.6133 10.4223 11.7933 10.3457 12 10.345C12.2067 10.3443 12.3867 10.421 12.54 10.575C12.6933 10.729 12.77 10.909 12.77 11.115C12.77 11.321 12.6933 11.5007 12.54 11.654C12.3867 11.8073 12.2067 11.884 12 11.884ZM8 15.73C7.79333 15.73 7.61333 15.6533 7.46 15.5C7.30667 15.3467 7.23 15.1667 7.23 14.96C7.23 14.7533 7.30667 14.5737 7.46 14.421C7.61333 14.2683 7.79333 14.1917 8 14.191C8.20667 14.1903 8.38667 14.267 8.54 14.421C8.69333 14.575 8.77 14.755 8.77 14.961C8.77 15.167 8.69333 15.347 8.54 15.501C8.38667 15.655 8.20667 15.7313 8 15.73ZM4 15.73C3.79333 15.73 3.61333 15.6533 3.46 15.5C3.30667 15.3467 3.23 15.1667 3.23 14.96C3.23 14.7533 3.30667 14.5737 3.46 14.421C3.61333 14.2683 3.79333 14.1917 4 14.191C4.20667 14.1903 4.38667 14.267 4.54 14.421C4.69333 14.575 4.77 14.755 4.77 14.961C4.77 15.167 4.69333 15.347 4.54 15.501C4.38667 15.655 4.20667 15.7313 4 15.73ZM12 15.73C11.7933 15.73 11.6133 15.6533 11.46 15.5C11.3067 15.3467 11.23 15.1667 11.23 14.96C11.23 14.7533 11.3067 14.5737 11.46 14.421C11.6133 14.2683 11.7933 14.1917 12 14.191C12.2067 14.1903 12.3867 14.267 12.54 14.421C12.6933 14.575 12.77 14.755 12.77 14.961C12.77 15.167 12.6933 15.347 12.54 15.501C12.3867 15.655 12.2067 15.7313 12 15.73Z" fill="white"/>
</svg>
